<svg height="500" viewBox="0 0 128 128" width="500" xmlns="http://www.w3.org/2000/svg">
    <path d="M64 17A47 47 0 1 0 64 111A47 47 0 1 0 64 17Z" fill="#FFF" />
    <path d="M64 31.1A32.9 32.9 0 1 0 64 96.9A32.9 32.9 0 1 0 64 31.1Z" fill="#CBDED6" />
    <path d="M64 45.2A18.8 18.8 0 1 0 64 82.8A18.8 18.8 0 1 0 64 45.2Z" fill="#FCF7CB" />
    <path
        d="M64,114c-27.6,0-50-22.4-50-50s22.4-50,50-50s50,22.4,50,50S91.6,114,64,114z M64,20c-24.3,0-44,19.7-44,44s19.7,44,44,44s44-19.7,44-44S88.3,20,64,20z"
        fill="#454B54" />
    <path d="M64 59.2A4.8 4.8 0 1 0 64 68.8A4.8 4.8 0 1 0 64 59.2Z" fill="#E97583" />
</svg>